<svg width="16" height="16" viewBox="0 0 16 16" fill="none" xmlns="http://www.w3.org/2000/svg">
<path d="M5.33325 3.83331C5.05992 3.83331 4.83325 3.60665 4.83325 3.33331V1.33331C4.83325 1.05998 5.05992 0.833313 5.33325 0.833313C5.60659 0.833313 5.83325 1.05998 5.83325 1.33331V3.33331C5.83325 3.60665 5.60659 3.83331 5.33325 3.83331Z" fill="#070707"/>
<path d="M10.6667 3.83331C10.3934 3.83331 10.1667 3.60665 10.1667 3.33331V1.33331C10.1667 1.05998 10.3934 0.833313 10.6667 0.833313C10.9401 0.833313 11.1667 1.05998 11.1667 1.33331V3.33331C11.1667 3.60665 10.9401 3.83331 10.6667 3.83331Z" fill="#070707"/>
<path d="M13.6666 6.56H2.33325C2.05992 6.56 1.83325 6.33333 1.83325 6.06C1.83325 5.78666 2.05992 5.56 2.33325 5.56H13.6666C13.9399 5.56 14.1666 5.78666 14.1666 6.06C14.1666 6.33333 13.9399 6.56 13.6666 6.56Z" fill="#070707"/>
<path d="M10.6667 15.1666H5.33333C2.9 15.1666 1.5 13.7666 1.5 11.3333V5.66665C1.5 3.23331 2.9 1.83331 5.33333 1.83331H10.6667C13.1 1.83331 14.5 3.23331 14.5 5.66665V11.3333C14.5 13.7666 13.1 15.1666 10.6667 15.1666ZM5.33333 2.83331C3.42667 2.83331 2.5 3.75998 2.5 5.66665V11.3333C2.5 13.24 3.42667 14.1666 5.33333 14.1666H10.6667C12.5733 14.1666 13.5 13.24 13.5 11.3333V5.66665C13.5 3.75998 12.5733 2.83331 10.6667 2.83331H5.33333Z" fill="#070707"/>
<path d="M5.66667 9.66665C5.58 9.66665 5.49333 9.64666 5.41333 9.61333C5.33333 9.58 5.26001 9.53332 5.19334 9.47332C5.13334 9.40665 5.08666 9.33332 5.05332 9.25332C5.01999 9.17332 5 9.08665 5 8.99999C5 8.82665 5.07334 8.65333 5.19334 8.52666C5.26001 8.46666 5.33333 8.41998 5.41333 8.38665C5.53333 8.33331 5.66667 8.31998 5.80001 8.34665C5.84001 8.35331 5.88 8.36665 5.92 8.38665C5.96 8.39998 6 8.42 6.04 8.44666C6.07333 8.47333 6.10666 8.49999 6.13999 8.52666C6.16666 8.55999 6.19999 8.59332 6.21999 8.62666C6.24666 8.66666 6.26668 8.70665 6.28001 8.74665C6.30001 8.78665 6.31334 8.82665 6.32001 8.86665C6.32667 8.91331 6.33333 8.95332 6.33333 8.99999C6.33333 9.17332 6.25999 9.34665 6.13999 9.47332C6.01333 9.59332 5.84 9.66665 5.66667 9.66665Z" fill="#070707"/>
<path d="M7.99992 9.66664C7.82659 9.66664 7.65326 9.5933 7.52659 9.4733C7.49992 9.43997 7.47326 9.40664 7.44659 9.37331C7.41993 9.33331 7.39991 9.29331 7.38658 9.25331C7.36658 9.21331 7.35324 9.17332 7.34658 9.13332C7.33991 9.08665 7.33325 9.04664 7.33325 8.99998C7.33325 8.91331 7.35324 8.82664 7.38658 8.74664C7.41991 8.66664 7.46659 8.59332 7.52659 8.52665C7.71326 8.33998 8.01326 8.27997 8.25326 8.38663C8.33992 8.41997 8.40658 8.46665 8.47325 8.52665C8.59325 8.65332 8.66659 8.82664 8.66659 8.99998C8.66659 9.04664 8.65993 9.08665 8.65326 9.13332C8.64659 9.17332 8.63326 9.21331 8.61326 9.25331C8.59993 9.29331 8.57991 9.33331 8.55324 9.37331C8.52658 9.40664 8.49991 9.43997 8.47325 9.4733C8.40658 9.5333 8.33992 9.57999 8.25326 9.61332C8.17326 9.64665 8.08659 9.66664 7.99992 9.66664Z" fill="#070707"/>
<path d="M5.66667 12C5.58 12 5.49333 11.98 5.41333 11.9467C5.33333 11.9134 5.26001 11.8667 5.19334 11.8067C5.13334 11.74 5.08666 11.6734 5.05332 11.5867C5.01999 11.5067 5 11.42 5 11.3334C5 11.16 5.07334 10.9867 5.19334 10.86C5.26001 10.8 5.33333 10.7533 5.41333 10.72C5.66 10.6133 5.95333 10.6734 6.13999 10.86C6.16666 10.8934 6.19999 10.9267 6.21999 10.96C6.24666 11 6.26668 11.04 6.28001 11.08C6.30001 11.12 6.31334 11.16 6.32001 11.2067C6.32667 11.2467 6.33333 11.2934 6.33333 11.3334C6.33333 11.5067 6.25999 11.68 6.13999 11.8067C6.01333 11.9267 5.84 12 5.66667 12Z" fill="#070707"/>
</svg>
