<svg width="9" height="18" viewBox="0 0 9 18" fill="none" xmlns="http://www.w3.org/2000/svg">
<path d="M8.0899 0.329981C8.2799 0.329981 8.4699 0.39998 8.6199 0.54998C8.9099 0.83998 8.9099 1.31998 8.6199 1.60998L2.0999 8.12998C1.6199 8.60998 1.6199 9.38998 2.0999 9.86998L8.6199 16.39C8.9099 16.68 8.9099 17.16 8.6199 17.45C8.3299 17.74 7.8499 17.74 7.5599 17.45L1.0399 10.93C0.529902 10.42 0.239902 9.72998 0.239902 8.99998C0.239902 8.26998 0.519902 7.57998 1.0399 7.06998L7.5599 0.54998C7.7099 0.40998 7.8999 0.329981 8.0899 0.329981Z" fill="#070707"/>
</svg>
