<svg width="136" height="24" viewBox="0 0 136 24" fill="none" xmlns="http://www.w3.org/2000/svg">
<path d="M7.96997 22.75C5.34997 22.75 3.21997 20.62 3.21997 18C3.21997 15.38 5.34997 13.25 7.96997 13.25C10.59 13.25 12.72 15.38 12.72 18C12.72 20.62 10.59 22.75 7.96997 22.75ZM7.96997 14.75C6.17997 14.75 4.71997 16.21 4.71997 18C4.71997 19.79 6.17997 21.25 7.96997 21.25C9.75997 21.25 11.22 19.79 11.22 18C11.22 16.21 9.76997 14.75 7.96997 14.75Z" fill="#292D32"/>
<path d="M11.97 18.75C11.56 18.75 11.22 18.41 11.22 18V4C11.22 3.59 11.56 3.25 11.97 3.25C12.38 3.25 12.72 3.59 12.72 4V18C12.72 18.41 12.39 18.75 11.97 18.75Z" fill="#292D32"/>
<path d="M19.13 10.23C18.8 10.23 18.45 10.17 18.11 10.06L13.69 8.59C12.31 8.13 11.23 6.63 11.23 5.18V4C11.23 3.03 11.63 2.19 12.31 1.69C13 1.19 13.92 1.09 14.84 1.39L19.26 2.86C20.64 3.32 21.72 4.82 21.72 6.27V7.44C21.72 8.41 21.32 9.25 20.64 9.75C20.21 10.08 19.68 10.23 19.13 10.23ZM13.82 2.72C13.58 2.72 13.36 2.78 13.19 2.91C12.89 3.12 12.73 3.51 12.73 4V5.17C12.73 5.97 13.4 6.9 14.16 7.16L18.58 8.63C19.04 8.79 19.47 8.75 19.76 8.54C20.06 8.33 20.22 7.94 20.22 7.45V6.28C20.22 5.48 19.55 4.55 18.79 4.29L14.37 2.82C14.18 2.75 13.99 2.72 13.82 2.72Z" fill="#292D32"/>
<path d="M34.28 22.75C32.15 22.75 30.41 21.01 30.41 18.88C30.41 16.75 32.15 15.01 34.28 15.01C36.41 15.01 38.15 16.75 38.15 18.88C38.15 21.01 36.41 22.75 34.28 22.75ZM34.28 16.51C32.97 16.51 31.91 17.57 31.91 18.88C31.91 20.19 32.97 21.25 34.28 21.25C35.59 21.25 36.65 20.19 36.65 18.88C36.65 17.57 35.59 16.51 34.28 16.51Z" fill="#292D32"/>
<path d="M37.4 19.63C36.99 19.63 36.65 19.29 36.65 18.88V6.29999C36.65 4.71999 37.6 3.47999 39.12 3.06999L45.36 1.36999C46.63 1.01999 47.7 1.14999 48.45 1.72999C49.21 2.30999 49.59 3.27999 49.59 4.60999V16.81C49.59 17.22 49.25 17.56 48.84 17.56C48.43 17.56 48.09 17.22 48.09 16.81V4.59999C48.09 4.01999 47.99 3.25999 47.54 2.91999C47.05 2.53999 46.21 2.68999 45.75 2.81999L39.51 4.51999C38.64 4.75999 38.15 5.40999 38.15 6.30999V18.89C38.15 19.29 37.81 19.63 37.4 19.63Z" fill="#292D32"/>
<path d="M45.72 20.67C43.59 20.67 41.85 18.93 41.85 16.8C41.85 14.67 43.59 12.93 45.72 12.93C47.85 12.93 49.59 14.67 49.59 16.8C49.59 18.93 47.85 20.67 45.72 20.67ZM45.72 14.43C44.41 14.43 43.35 15.49 43.35 16.8C43.35 18.11 44.41 19.17 45.72 19.17C47.03 19.17 48.09 18.11 48.09 16.8C48.09 15.49 47.03 14.43 45.72 14.43Z" fill="#292D32"/>
<path d="M37.4 10.27C37.07 10.27 36.77 10.05 36.68 9.72C36.57 9.32 36.8 8.9 37.2 8.79L48.64 5.67C49.04 5.56 49.45 5.8 49.56 6.2C49.67 6.6 49.43 7.01 49.03 7.12L37.6 10.24C37.53 10.26 37.46 10.27 37.4 10.27Z" fill="#292D32"/>
<path d="M63.97 22.75C61.35 22.75 59.22 20.62 59.22 18C59.22 15.38 61.35 13.25 63.97 13.25C66.59 13.25 68.72 15.38 68.72 18C68.72 20.62 66.59 22.75 63.97 22.75ZM63.97 14.75C62.18 14.75 60.72 16.21 60.72 18C60.72 19.79 62.18 21.25 63.97 21.25C65.76 21.25 67.22 19.79 67.22 18C67.22 16.21 65.77 14.75 63.97 14.75Z" fill="#292D32"/>
<path d="M67.97 18.75C67.56 18.75 67.22 18.41 67.22 18V4C67.22 3.59 67.56 3.25 67.97 3.25C68.38 3.25 68.72 3.59 68.72 4V18C68.72 18.41 68.39 18.75 67.97 18.75Z" fill="#292D32"/>
<path d="M75.13 10.23C74.8 10.23 74.45 10.17 74.11 10.06L69.69 8.59C68.31 8.13 67.23 6.63 67.23 5.18V4C67.23 3.03 67.63 2.19 68.31 1.69C69 1.19 69.92 1.09 70.84 1.39L75.26 2.86C76.64 3.32 77.72 4.82 77.72 6.27V7.44C77.72 8.41 77.32 9.25 76.64 9.75C76.21 10.08 75.68 10.23 75.13 10.23ZM69.82 2.72C69.58 2.72 69.36 2.78 69.19 2.91C68.89 3.12 68.73 3.51 68.73 4V5.17C68.73 5.97 69.4 6.9 70.16 7.16L74.58 8.63C75.04 8.79 75.47 8.75 75.76 8.54C76.06 8.33 76.22 7.94 76.22 7.45V6.28C76.22 5.48 75.55 4.55 74.79 4.29L70.37 2.82C70.18 2.75 69.99 2.72 69.82 2.72Z" fill="#292D32"/>
<path d="M90.28 22.75C88.15 22.75 86.41 21.01 86.41 18.88C86.41 16.75 88.15 15.01 90.28 15.01C92.41 15.01 94.15 16.75 94.15 18.88C94.15 21.01 92.41 22.75 90.28 22.75ZM90.28 16.51C88.97 16.51 87.91 17.57 87.91 18.88C87.91 20.19 88.97 21.25 90.28 21.25C91.59 21.25 92.65 20.19 92.65 18.88C92.65 17.57 91.59 16.51 90.28 16.51Z" fill="#292D32"/>
<path d="M93.4 19.63C92.99 19.63 92.65 19.29 92.65 18.88V6.29999C92.65 4.71999 93.6 3.47999 95.12 3.06999L101.36 1.36999C102.63 1.01999 103.7 1.14999 104.45 1.72999C105.21 2.30999 105.59 3.27999 105.59 4.60999V16.81C105.59 17.22 105.25 17.56 104.84 17.56C104.43 17.56 104.09 17.22 104.09 16.81V4.59999C104.09 4.01999 103.99 3.25999 103.54 2.91999C103.05 2.53999 102.21 2.68999 101.75 2.81999L95.51 4.51999C94.64 4.75999 94.15 5.40999 94.15 6.30999V18.89C94.15 19.29 93.81 19.63 93.4 19.63Z" fill="#292D32"/>
<path d="M101.72 20.67C99.59 20.67 97.85 18.93 97.85 16.8C97.85 14.67 99.59 12.93 101.72 12.93C103.85 12.93 105.59 14.67 105.59 16.8C105.59 18.93 103.85 20.67 101.72 20.67ZM101.72 14.43C100.41 14.43 99.35 15.49 99.35 16.8C99.35 18.11 100.41 19.17 101.72 19.17C103.03 19.17 104.09 18.11 104.09 16.8C104.09 15.49 103.03 14.43 101.72 14.43Z" fill="#292D32"/>
<path d="M93.4 10.27C93.07 10.27 92.77 10.05 92.68 9.72C92.57 9.32 92.8 8.9 93.2 8.79L104.64 5.67C105.04 5.56 105.45 5.8 105.56 6.2C105.67 6.6 105.43 7.01 105.03 7.12L93.6 10.24C93.53 10.26 93.46 10.27 93.4 10.27Z" fill="#292D32"/>
<path d="M119.97 22.75C117.35 22.75 115.22 20.62 115.22 18C115.22 15.38 117.35 13.25 119.97 13.25C122.59 13.25 124.72 15.38 124.72 18C124.72 20.62 122.59 22.75 119.97 22.75ZM119.97 14.75C118.18 14.75 116.72 16.21 116.72 18C116.72 19.79 118.18 21.25 119.97 21.25C121.76 21.25 123.22 19.79 123.22 18C123.22 16.21 121.77 14.75 119.97 14.75Z" fill="#292D32"/>
<path d="M123.97 18.75C123.56 18.75 123.22 18.41 123.22 18V4C123.22 3.59 123.56 3.25 123.97 3.25C124.38 3.25 124.72 3.59 124.72 4V18C124.72 18.41 124.39 18.75 123.97 18.75Z" fill="#292D32"/>
<path d="M131.13 10.23C130.8 10.23 130.45 10.17 130.11 10.06L125.69 8.59C124.31 8.13 123.23 6.63 123.23 5.18V4C123.23 3.03 123.63 2.19 124.31 1.69C125 1.19 125.92 1.09 126.84 1.39L131.26 2.86C132.64 3.32 133.72 4.82 133.72 6.27V7.44C133.72 8.41 133.32 9.25 132.64 9.75C132.21 10.08 131.68 10.23 131.13 10.23ZM125.82 2.72C125.58 2.72 125.36 2.78 125.19 2.91C124.89 3.12 124.73 3.51 124.73 4V5.17C124.73 5.97 125.4 6.9 126.16 7.16L130.58 8.63C131.04 8.79 131.47 8.75 131.76 8.54C132.06 8.33 132.22 7.94 132.22 7.45V6.28C132.22 5.48 131.55 4.55 130.79 4.29L126.37 2.82C126.18 2.75 125.99 2.72 125.82 2.72Z" fill="#292D32"/>
</svg>
