<svg width="33" height="32" viewBox="0 0 33 32" fill="none" xmlns="http://www.w3.org/2000/svg">
<path d="M20.5 30.3334H12.5C5.25999 30.3334 2.16666 27.24 2.16666 20V12C2.16666 4.76002 5.25999 1.66669 12.5 1.66669H20.5C27.74 1.66669 30.8333 4.76002 30.8333 12V20C30.8333 27.24 27.74 30.3334 20.5 30.3334ZM12.5 3.66669C6.35332 3.66669 4.16666 5.85335 4.16666 12V20C4.16666 26.1467 6.35332 28.3334 12.5 28.3334H20.5C26.6467 28.3334 28.8333 26.1467 28.8333 20V12C28.8333 5.85335 26.6467 3.66669 20.5 3.66669H12.5Z" fill="#292D32"/>
<path d="M16.5 21.6666C13.38 21.6666 10.8333 19.12 10.8333 16C10.8333 12.88 13.38 10.3333 16.5 10.3333C19.62 10.3333 22.1667 12.88 22.1667 16C22.1667 19.12 19.62 21.6666 16.5 21.6666ZM16.5 12.3333C14.4733 12.3333 12.8333 13.9733 12.8333 16C12.8333 18.0266 14.4733 19.6666 16.5 19.6666C18.5267 19.6666 20.1667 18.0266 20.1667 16C20.1667 13.9733 18.5267 12.3333 16.5 12.3333Z" fill="#292D32"/>
<path d="M23.1667 9.99999C22.9933 9.99999 22.82 9.95999 22.66 9.89333C22.5 9.82666 22.3533 9.73333 22.22 9.61333C22.1 9.47999 21.9933 9.33333 21.9267 9.17333C21.86 9.01333 21.8333 8.83999 21.8333 8.66666C21.8333 8.49333 21.86 8.31999 21.9267 8.15999C22.0067 7.98666 22.1 7.85333 22.22 7.71999C22.2867 7.66666 22.3533 7.59999 22.42 7.55999C22.5 7.50666 22.58 7.46666 22.66 7.43999C22.74 7.39999 22.82 7.37333 22.9133 7.35999C23.34 7.26666 23.7933 7.41333 24.1133 7.71999C24.2333 7.85333 24.3267 7.98666 24.3933 8.15999C24.46 8.31999 24.5 8.49333 24.5 8.66666C24.5 8.83999 24.46 9.01333 24.3933 9.17333C24.3267 9.33333 24.2333 9.47999 24.1133 9.61333C23.98 9.73333 23.8333 9.82666 23.6733 9.89333C23.5133 9.95999 23.34 9.99999 23.1667 9.99999Z" fill="#292D32"/>
</svg>
