<svg width="33" height="32" viewBox="0 0 33 32" fill="none" xmlns="http://www.w3.org/2000/svg">
<path d="M2.80669 20.32V20.1466C2.80669 14.2266 5.14003 11.3733 10.3667 10.88C10.9134 10.8266 11.4067 11.2266 11.46 11.7866C11.5134 12.3333 11.1 12.8266 10.5534 12.88C6.3667 13.2666 4.80669 15.24 4.80669 20.16V20.3333C4.80669 25.76 6.72669 27.68 12.1534 27.68H20.8467C26.2734 27.68 28.1934 25.76 28.1934 20.3333V20.16C28.1934 15.2133 26.6067 13.24 22.34 12.88C21.7934 12.8133 21.38 12.36 21.4334 11.7866C21.4734 11.2266 21.9667 10.8266 22.5134 10.8666C27.82 11.32 30.1934 14.1866 30.1934 20.1466V20.32C30.1934 26.8666 27.3934 29.6666 20.8467 29.6666H12.1534C5.60669 29.6666 2.80669 26.8666 2.80669 20.32Z" fill="#070707"/>
<path d="M15.5 19.84L15.5 2.66669C15.5 2.12002 15.9533 1.66669 16.5 1.66669C17.0467 1.66669 17.5 2.12002 17.5 2.66669V19.84C17.5 20.3867 17.0467 20.84 16.5 20.84C15.9533 20.84 15.5 20.4 15.5 19.84Z" fill="#070707"/>
<path d="M11.0333 16.8667C11.0333 16.6133 11.1266 16.36 11.3266 16.16C11.7133 15.7733 12.3533 15.7733 12.74 16.16L16.5 19.92L20.26 16.16C20.6467 15.7733 21.2867 15.7733 21.6733 16.16C22.06 16.5467 22.06 17.1867 21.6733 17.5733L17.2067 22.04C16.82 22.4267 16.18 22.4267 15.7933 22.04L11.3266 17.5733C11.1266 17.3733 11.0333 17.12 11.0333 16.8667Z" fill="#070707"/>
</svg>
