<svg width="32" height="32" viewBox="0 0 32 32" fill="none" xmlns="http://www.w3.org/2000/svg">
<path d="M21.6535 2.66669H10.3468C6.66683 2.66669 5.3335 4.00002 5.3335 7.74669V24.2534C5.3335 28 6.66683 29.3334 10.3468 29.3334H21.6402C25.3335 29.3334 26.6668 28 26.6668 24.2534V7.74669C26.6668 4.00002 25.3335 2.66669 21.6535 2.66669ZM16.0002 25.7334C14.7202 25.7334 13.6668 24.68 13.6668 23.4C13.6668 22.12 14.7202 21.0667 16.0002 21.0667C17.2802 21.0667 18.3335 22.12 18.3335 23.4C18.3335 24.68 17.2802 25.7334 16.0002 25.7334ZM18.6668 8.33335H13.3335C12.7868 8.33335 12.3335 7.88002 12.3335 7.33335C12.3335 6.78669 12.7868 6.33335 13.3335 6.33335H18.6668C19.2135 6.33335 19.6668 6.78669 19.6668 7.33335C19.6668 7.88002 19.2135 8.33335 18.6668 8.33335Z" fill="#E1ECF3"/>
</svg>
