<svg width="32" height="32" viewBox="0 0 32 32" fill="none" xmlns="http://www.w3.org/2000/svg">
<path d="M21.6535 2.66663H10.3468C6.66683 2.66663 5.3335 3.99996 5.3335 7.74663V24.2533C5.3335 28 6.66683 29.3333 10.3468 29.3333H21.6402C25.3335 29.3333 26.6668 28 26.6668 24.2533V7.74663C26.6668 3.99996 25.3335 2.66663 21.6535 2.66663ZM16.0002 25.7333C14.7202 25.7333 13.6668 24.68 13.6668 23.4C13.6668 22.12 14.7202 21.0666 16.0002 21.0666C17.2802 21.0666 18.3335 22.12 18.3335 23.4C18.3335 24.68 17.2802 25.7333 16.0002 25.7333ZM18.6668 8.33329H13.3335C12.7868 8.33329 12.3335 7.87996 12.3335 7.33329C12.3335 6.78663 12.7868 6.33329 13.3335 6.33329H18.6668C19.2135 6.33329 19.6668 6.78663 19.6668 7.33329C19.6668 7.87996 19.2135 8.33329 18.6668 8.33329Z" fill="#FCAC48"/>
</svg>
