<svg width="32" height="32" viewBox="0 0 32 32" fill="none" xmlns="http://www.w3.org/2000/svg">
<path d="M16.92 24C16.9334 24 16.9334 24 16.9467 24C18.3334 23.9866 19.5067 23.12 19.92 21.8L22.52 13.4266C22.8667 12.2933 22.5734 11.08 21.7334 10.2533C20.9067 9.42663 19.7067 9.13327 18.5867 9.47994L10.2 12.08C8.86669 12.4933 8.00004 13.6666 7.98671 15.0533C7.97338 16.44 8.81338 17.6133 10.1334 18.0533L12.4267 18.8266C12.7734 18.9466 13.0267 19.1999 13.1467 19.5333L13.9334 21.84C14.3734 23.16 15.5467 24 16.92 24ZM19.5467 11.3333C19.9467 11.3333 20.2134 11.5466 20.3334 11.6666C20.64 11.9733 20.7467 12.4133 20.6134 12.8266L18.0134 21.1999C17.7867 21.9333 17.1334 22 16.9334 22C16.7734 21.9866 16.0934 21.9466 15.8534 21.2133L15.0667 18.9066C14.76 17.9866 14.0134 17.24 13.0934 16.9333L10.8 16.1599C10.8 16.1599 10.8 16.1599 10.7867 16.1599C10.0534 15.9199 10 15.2666 10 15.08C10 14.88 10.0667 14.2266 10.8 14L19.1867 11.3999C19.32 11.3466 19.44 11.3333 19.5467 11.3333Z" fill="#292D32"/>
<path d="M16 30.3334C23.9066 30.3334 30.3333 23.9067 30.3333 16C30.3333 8.09335 23.9066 1.66669 16 1.66669C8.09331 1.66669 1.66665 8.09335 1.66665 16C1.66665 23.9067 8.09331 30.3334 16 30.3334ZM16 3.66669C22.8 3.66669 28.3333 9.20002 28.3333 16C28.3333 22.8 22.8 28.3334 16 28.3334C9.19998 28.3334 3.66665 22.8 3.66665 16C3.66665 9.20002 9.19998 3.66669 16 3.66669Z" fill="#292D32"/>
</svg>
