<svg width="32" height="32" viewBox="0 0 32 32" fill="none" xmlns="http://www.w3.org/2000/svg">
<path d="M29.3333 5H2.66663C2.11996 5 1.66663 4.54667 1.66663 4C1.66663 3.45333 2.11996 3 2.66663 3H29.3333C29.88 3 30.3333 3.45333 30.3333 4C30.3333 4.54667 29.88 5 29.3333 5Z" fill="#292D32"/>
<path d="M14.6666 13H2.66663C2.11996 13 1.66663 12.5467 1.66663 12C1.66663 11.4533 2.11996 11 2.66663 11H14.6666C15.2133 11 15.6666 11.4533 15.6666 12C15.6666 12.5467 15.2133 13 14.6666 13Z" fill="#292D32"/>
<path d="M10.6666 21H2.66663C2.11996 21 1.66663 20.5467 1.66663 20C1.66663 19.4533 2.11996 19 2.66663 19H10.6666C11.2133 19 11.6666 19.4533 11.6666 20C11.6666 20.5467 11.2133 21 10.6666 21Z" fill="#292D32"/>
<path d="M7.99996 29H2.66663C2.11996 29 1.66663 28.5467 1.66663 28C1.66663 27.4533 2.11996 27 2.66663 27H7.99996C8.54663 27 8.99996 27.4533 8.99996 28C8.99996 28.5467 8.54663 29 7.99996 29Z" fill="#292D32"/>
<path d="M15.7869 30.3335C13.6402 30.3335 11.8802 28.5868 11.8802 26.4268C11.8802 24.2802 13.6269 22.5202 15.7869 22.5202C17.9469 22.5202 19.6936 24.2668 19.6936 26.4268C19.6936 28.5868 17.9469 30.3335 15.7869 30.3335ZM15.7869 24.5335C14.7336 24.5335 13.8802 25.3868 13.8802 26.4402C13.8802 27.4935 14.7336 28.3468 15.7869 28.3468C16.8402 28.3468 17.6936 27.4935 17.6936 26.4402C17.6936 25.3868 16.8402 24.5335 15.7869 24.5335Z" fill="#292D32"/>
<path d="M18.6934 27.4268C18.1467 27.4268 17.6934 26.9734 17.6934 26.4268V14.7334C17.6934 13.1201 18.6534 11.8535 20.2134 11.4401L26.0134 9.85346C27.28 9.50679 28.3734 9.6401 29.1467 10.2401C29.92 10.8401 30.32 11.8134 30.32 13.1601V24.5068C30.32 25.0534 29.8667 25.5068 29.32 25.5068C28.7734 25.5068 28.32 25.0534 28.32 24.5068V13.1601C28.32 12.4934 28.1867 12.0268 27.9334 11.8401C27.68 11.6401 27.16 11.6267 26.5334 11.8001L20.7334 13.3867C20.3467 13.4934 19.6934 13.8134 19.6934 14.7601V26.4535C19.6934 26.9868 19.24 27.4268 18.6934 27.4268Z" fill="#292D32"/>
<path d="M26.4268 28.4001C24.2801 28.4001 22.5201 26.6534 22.5201 24.4934C22.5201 22.3468 24.2668 20.5868 26.4268 20.5868C28.5868 20.5868 30.3335 22.3334 30.3335 24.4934C30.3335 26.6534 28.5868 28.4001 26.4268 28.4001ZM26.4268 22.6001C25.3735 22.6001 24.5201 23.4534 24.5201 24.5068C24.5201 25.5601 25.3735 26.4134 26.4268 26.4134C27.4801 26.4134 28.3335 25.5601 28.3335 24.5068C28.3335 23.4534 27.4801 22.6001 26.4268 22.6001Z" fill="#292D32"/>
<path d="M18.6935 19.1334C18.2535 19.1334 17.8535 18.84 17.7335 18.4C17.5868 17.8667 17.9068 17.3201 18.4402 17.1734L29.0802 14.2667C29.6135 14.1201 30.1602 14.44 30.3068 14.9734C30.4535 15.5067 30.1335 16.0534 29.6002 16.2001L18.9602 19.1067C18.8668 19.1201 18.7735 19.1334 18.6935 19.1334Z" fill="#292D32"/>
</svg>
