<svg width="56" height="56" viewBox="0 0 56 56" fill="none" xmlns="http://www.w3.org/2000/svg">
<path d="M50.6801 14.6534V17.3834C50.6801 19.67 49.7701 21.63 48.1601 22.7734C47.1568 23.52 45.9201 23.87 44.6368 23.87C43.8434 23.87 43.0501 23.7534 42.2334 23.4734L29.6801 19.2967V42C29.6801 48.1134 24.7101 53.0834 18.5968 53.0834C12.4834 53.0834 7.51343 48.1134 7.51343 42C7.51343 35.8867 12.4834 30.9167 18.5968 30.9167C21.5368 30.9167 24.1968 32.0834 26.1801 33.95V9.33336C26.1801 7.07002 27.1134 5.11002 28.7234 3.94336C30.3334 2.80002 32.4801 2.54336 34.6268 3.24336L44.9401 6.69669C48.1134 7.74669 50.6801 11.3167 50.6801 14.6534Z" fill="#FCAC48"/>
</svg>
