<svg width="12" height="14" viewBox="0 0 12 14" fill="none" xmlns="http://www.w3.org/2000/svg">
<path d="M3.24675 13.1867C2.72008 13.1867 2.22008 13.06 1.78008 12.8067C0.740081 12.2067 0.166748 10.9867 0.166748 9.38001V4.62668C0.166748 3.01335 0.740081 1.80001 1.78008 1.20001C2.82008 0.600013 4.16008 0.713346 5.56008 1.52001L9.67341 3.89335C11.0667 4.70001 11.8401 5.80668 11.8401 7.00668C11.8401 8.20668 11.0734 9.31335 9.67341 10.12L5.56008 12.4933C4.75341 12.9533 3.96675 13.1867 3.24675 13.1867ZM3.24675 1.81335C2.88675 1.81335 2.56675 1.89335 2.28008 2.06001C1.56008 2.47335 1.16675 3.38668 1.16675 4.62668V9.37335C1.16675 10.6133 1.56008 11.52 2.28008 11.94C3.00008 12.36 3.98675 12.24 5.06008 11.62L9.17341 9.24668C10.2467 8.62668 10.8401 7.83335 10.8401 7.00001C10.8401 6.16668 10.2467 5.37335 9.17341 4.75335L5.06008 2.38001C4.40675 2.00668 3.79341 1.81335 3.24675 1.81335Z" fill="#070707"/>
</svg>
