<svg width="32" height="32" viewBox="0 0 32 32" fill="none" xmlns="http://www.w3.org/2000/svg">
<path d="M15.3334 29C7.80008 29 1.66675 22.8666 1.66675 15.3333C1.66675 7.79996 7.80008 1.66663 15.3334 1.66663C22.8667 1.66663 29.0001 7.79996 29.0001 15.3333C29.0001 22.8666 22.8667 29 15.3334 29ZM15.3334 3.66663C8.89341 3.66663 3.66675 8.90663 3.66675 15.3333C3.66675 21.76 8.89341 27 15.3334 27C21.7734 27 27.0001 21.76 27.0001 15.3333C27.0001 8.90663 21.7734 3.66663 15.3334 3.66663Z" fill="#E1ECF3"/>
<path d="M29.3333 30.3334C29.0799 30.3334 28.8266 30.24 28.6266 30.04L25.9599 27.3734C25.5733 26.9867 25.5733 26.3467 25.9599 25.96C26.3466 25.5734 26.9866 25.5734 27.3733 25.96L30.0399 28.6267C30.4266 29.0134 30.4266 29.6534 30.0399 30.04C29.8399 30.24 29.5866 30.3334 29.3333 30.3334Z" fill="#E1ECF3"/>
</svg>
