<svg width="32" height="32" viewBox="0 0 32 32" fill="none" xmlns="http://www.w3.org/2000/svg">
<path d="M16.0933 29.3067C14.2133 29.3067 12.32 28.5867 10.8933 27.16L4.85333 21.12C3.38666 19.6533 2.61333 17.6267 2.70666 15.56L3.02666 8.89332C3.17333 5.70666 5.69333 3.18666 8.89333 3.02666L15.56 2.70666C17.6267 2.62666 19.6533 3.38666 21.12 4.85332L27.16 10.8933C30.0267 13.76 30.0267 18.44 27.16 21.3067L21.3067 27.16C19.8667 28.5867 17.9867 29.3067 16.0933 29.3067ZM6.26666 19.6933L12.3067 25.7333C13.32 26.7467 14.6667 27.3067 16.0933 27.3067C17.52 27.3067 18.8667 26.7467 19.88 25.7333L25.7333 19.88C26.7467 18.8667 27.3067 17.52 27.3067 16.0933C27.3067 14.6667 26.7467 13.32 25.7333 12.3067L19.6933 6.26666C18.6267 5.19999 17.1467 4.62666 15.6533 4.70666L8.98666 5.02666C6.81333 5.11999 5.12 6.81332 5.01333 8.97332L4.69333 15.64C4.62666 17.1467 5.2 18.6267 6.26666 19.6933Z" fill="#292D32"/>
<path d="M12.6667 17C10.28 17 8.33337 15.0533 8.33337 12.6666C8.33337 10.28 10.28 8.33331 12.6667 8.33331C15.0534 8.33331 17 10.28 17 12.6666C17 15.0533 15.0534 17 12.6667 17ZM12.6667 10.3333C11.3867 10.3333 10.3334 11.3866 10.3334 12.6666C10.3334 13.9466 11.3867 15 12.6667 15C13.9467 15 15 13.9466 15 12.6666C15 11.3866 13.9467 10.3333 12.6667 10.3333Z" fill="#292D32"/>
</svg>
