<svg width="26" height="26" viewBox="0 0 26 26" fill="none" xmlns="http://www.w3.org/2000/svg">
<path d="M15.96 25.84C14.3867 25.84 12.16 24.7333 10.4 19.44L9.44001 16.56L6.56001 15.6C1.28001 13.84 0.17334 11.6133 0.17334 10.04C0.17334 8.47997 1.28001 6.23997 6.56001 4.46664L17.88 0.693306C20.7067 -0.253361 23.0667 0.0266393 24.52 1.46664C25.9733 2.90664 26.2533 5.27997 25.3067 8.10664L21.5333 19.4266C19.76 24.7333 17.5333 25.84 15.96 25.84ZM7.18667 6.37331C3.48001 7.61331 2.16001 9.07997 2.16001 10.04C2.16001 11 3.48001 12.4666 7.18667 13.6933L10.5467 14.8133C10.84 14.9066 11.08 15.1466 11.1733 15.44L12.2933 18.8C13.52 22.5066 15 23.8266 15.96 23.8266C16.92 23.8266 18.3867 22.5066 19.6267 18.8L23.4 7.47997C24.08 5.42664 23.96 3.74664 23.0933 2.87997C22.2267 2.01331 20.5467 1.90664 18.5067 2.58664L7.18667 6.37331Z" fill="#292D32"/>
</svg>
