<svg width="16" height="16" viewBox="0 0 16 16" fill="none" xmlns="http://www.w3.org/2000/svg">
<path d="M8.36659 13.7267C7.83992 13.7267 7.25992 13.54 6.67992 13.1734L4.73325 11.9534C4.59992 11.8734 4.44659 11.8267 4.29325 11.8267H3.33325C1.71992 11.8267 0.833252 10.94 0.833252 9.3267V6.66003C0.833252 5.0467 1.71992 4.16003 3.33325 4.16003H4.28659C4.43992 4.16003 4.59325 4.11336 4.72659 4.03336L6.67325 2.81336C7.64659 2.2067 8.59325 2.09336 9.33992 2.5067C10.0866 2.92003 10.4933 3.78003 10.4933 4.93336V11.0467C10.4933 12.1934 10.0799 13.06 9.33992 13.4734C9.04659 13.6467 8.71325 13.7267 8.36659 13.7267ZM3.33325 5.1667C2.27992 5.1667 1.83325 5.61336 1.83325 6.6667V9.33336C1.83325 10.3867 2.27992 10.8334 3.33325 10.8334H4.28659C4.63325 10.8334 4.96659 10.9267 5.25992 11.1134L7.20659 12.3334C7.84659 12.7334 8.45325 12.84 8.85992 12.6134C9.26659 12.3867 9.49992 11.82 9.49992 11.0667V4.94003C9.49992 4.18003 9.26659 3.61336 8.85992 3.39336C8.45325 3.1667 7.84659 3.2667 7.20659 3.67336L5.25325 4.8867C4.96659 5.07336 4.62659 5.1667 4.28659 5.1667H3.33325Z" fill="#070707"/>
<path d="M11.9999 11.1666C11.8933 11.1666 11.7933 11.1333 11.6999 11.0666C11.4799 10.9 11.4333 10.5866 11.5999 10.3666C12.6466 8.97331 12.6466 7.02665 11.5999 5.63331C11.4333 5.41331 11.4799 5.09998 11.6999 4.93331C11.9199 4.76665 12.2333 4.81331 12.3999 5.03331C13.7066 6.77998 13.7066 9.21998 12.3999 10.9666C12.2999 11.1 12.1533 11.1666 11.9999 11.1666Z" fill="#070707"/>
<path d="M13.2199 12.8334C13.1132 12.8334 13.0132 12.8 12.9199 12.7334C12.6999 12.5667 12.6532 12.2534 12.8199 12.0334C14.5999 9.66002 14.5999 6.34002 12.8199 3.96669C12.6532 3.74669 12.6999 3.43335 12.9199 3.26669C13.1399 3.10002 13.4532 3.14669 13.6199 3.36669C15.6666 6.09335 15.6666 9.90669 13.6199 12.6334C13.5266 12.7667 13.3732 12.8334 13.2199 12.8334Z" fill="#070707"/>
</svg>
