<svg width="33" height="32" viewBox="0 0 33 32" fill="none" xmlns="http://www.w3.org/2000/svg">
<path d="M3.16667 30.3333C2.9 30.3333 2.64663 30.2267 2.45996 30.04C2.20663 29.7867 2.10003 29.4133 2.19336 29.0667L3.87337 22.7867C2.75337 20.7067 2.16667 18.36 2.16667 15.9867C2.16667 8.07999 8.59333 1.65332 16.5 1.65332C24.4067 1.65332 30.8333 8.07999 30.8333 15.9867C30.8333 23.8933 24.4067 30.32 16.5 30.32C14.0867 30.32 11.7267 29.72 9.62004 28.5733L3.43335 30.2933C3.34002 30.32 3.26 30.3333 3.16667 30.3333ZM9.75334 26.5067C9.92667 26.5067 10.1 26.56 10.26 26.64C12.14 27.7467 14.3 28.3333 16.5 28.3333C23.3 28.3333 28.8333 22.8 28.8333 16C28.8333 9.2 23.3 3.66667 16.5 3.66667C9.7 3.66667 4.16667 9.2 4.16667 16C4.16667 18.1733 4.73999 20.2933 5.81999 22.16C5.95332 22.3867 5.99334 22.6667 5.92668 22.92L4.59334 27.9067L9.5 26.5467C9.58 26.52 9.67334 26.5067 9.75334 26.5067Z" fill="#292D32"/>
<path d="M20.1533 23.68C19.3267 23.68 18.4734 23.4933 17.58 23.1066C16.74 22.7466 15.9 22.2667 15.0867 21.6667C14.2867 21.08 13.5 20.4133 12.78 19.6933C12.06 18.96 11.3933 18.1867 10.8067 17.3867C10.2067 16.5467 9.72665 15.72 9.37998 14.9067C9.00665 14.0267 8.82001 13.16 8.82001 12.3333C8.82001 11.7467 8.92665 11.1867 9.12665 10.6667C9.33998 10.12 9.68666 9.62665 10.14 9.19999C10.9933 8.35999 12.22 8.05335 13.1934 8.52001C13.5267 8.66668 13.8067 8.90668 14.02 9.22668L15.5667 11.4C15.7267 11.6133 15.8467 11.84 15.94 12.0666C16.0467 12.3333 16.1134 12.6 16.1134 12.8533C16.1134 13.2 16.02 13.5467 15.8334 13.8533C15.7134 14.0533 15.54 14.2933 15.3133 14.52L15.14 14.7067C15.22 14.8133 15.3133 14.9466 15.46 15.1066C15.74 15.4266 16.0467 15.7733 16.38 16.1066C16.7133 16.4266 17.0467 16.7466 17.38 17.0266C17.54 17.16 17.6734 17.2667 17.7801 17.3333L17.9667 17.1466C18.2067 16.9066 18.4467 16.72 18.6867 16.6C19.1267 16.32 19.8067 16.2533 20.4067 16.5067C20.62 16.5867 20.8333 16.7067 21.06 16.8667L23.2867 18.44C23.5934 18.6533 23.8333 18.9467 23.9933 19.28C24.1267 19.6133 24.18 19.9067 24.18 20.2133C24.18 20.6133 24.0867 21 23.9134 21.3733C23.74 21.72 23.54 22.0267 23.3 22.3067C22.8733 22.7733 22.38 23.12 21.8467 23.3467C21.3134 23.5733 20.74 23.68 20.1533 23.68ZM12.22 10.32C12.14 10.32 11.8734 10.32 11.5401 10.6533C11.2867 10.8933 11.1133 11.1467 10.9933 11.4267C10.8733 11.7067 10.82 12.0267 10.82 12.3467C10.82 12.9067 10.9533 13.5066 11.22 14.1466C11.5 14.8133 11.9134 15.52 12.42 16.2267C12.94 16.9333 13.5267 17.64 14.18 18.2933C14.8334 18.9333 15.5267 19.5333 16.2467 20.0666C16.94 20.5733 17.6467 20.9733 18.3534 21.28C19.3667 21.72 20.3 21.8267 21.06 21.5067C21.3267 21.4 21.5667 21.2133 21.8067 20.9733C21.9267 20.84 22.02 20.7067 22.1 20.5333C22.14 20.44 22.1667 20.3333 22.1667 20.24C22.1667 20.2133 22.1666 20.1733 22.1266 20.0933L19.9 18.5467C19.8067 18.48 19.7133 18.4266 19.6333 18.4C19.58 18.4266 19.5 18.4667 19.3534 18.6133L18.8467 19.12C18.46 19.5067 17.8467 19.6133 17.3534 19.44L17.1134 19.3333C16.8067 19.1733 16.46 18.9333 16.0733 18.6C15.7 18.28 15.3401 17.9467 14.9534 17.5733C14.5801 17.1867 14.2467 16.8267 13.9267 16.4533C13.58 16.04 13.34 15.7067 13.18 15.4267L13.0334 15.08C12.9934 14.9467 12.98 14.8 12.98 14.6667C12.98 14.2933 13.1134 13.96 13.3667 13.6933L13.8734 13.1733C14.0201 13.0267 14.0734 12.9467 14.1 12.8933C14.06 12.8 14.0067 12.72 13.94 12.6267L12.38 10.4267L12.22 10.32Z" fill="#292D32"/>
</svg>
